<svg width="150" height="40" xmlns="http://www.w3.org/2000/svg" viewBox="0 0 455.16 115.3">
    <defs>
        <style>.cls-1{fill:#fff;}</style>
    </defs>
    <title>Asset 2appsido logo white</title>
    <g id="Layer_2" data-name="Layer 2">
        <g id="Layer_1-2" data-name="Layer 1">
            <path class="cls-1"
                d="M54.24,75.18V50.94q0-12.34-8-18.79T22,25.47L8.82,25.3,7.65,38.41l15.53.42q8.52.22,12.82,2.79a8.68,8.68,0,0,1,4.29,8v1.27c-1-.22-2-.41-3-.56a63.61,63.61,0,0,0-9.3-.59q-13.35,0-20.65,5.47T0,70.94q0,8.84,5.44,13.65t15.33,4.83A26.36,26.36,0,0,0,31,87.62a14.42,14.42,0,0,0,6.68-5.41,15.7,15.7,0,0,0,2.37-7.15H41.4l.84,13.77,21.41-.59V76.47Zm-14-11.06a12,12,0,0,1-1.82,6.27,13.89,13.89,0,0,1-5.47,5,18.91,18.91,0,0,1-9.06,2q-4.65,0-7.09-1.89A6.46,6.46,0,0,1,14.41,70q0-8.18,13.88-8.17c2.4,0,4.69.05,6.89.14a37.55,37.55,0,0,1,5.11.62v1.53Z" />
            <path class="cls-1"
                d="M237.19,89.42q-7.12,0-12.42-.45a76.17,76.17,0,0,1-9.47-1.32L217,74q6.88.94,11.82,1.42c3.3.31,6.08.47,8.36.47q8.58,0,12.44-1.42T253.48,70a3.93,3.93,0,0,0-1.12-3,8.23,8.23,0,0,0-3.53-1.7l-17.94-5q-7.41-2.07-11-5.68t-3.62-10.21q0-10.11,8.21-14.91T250,24.71c2.82,0,5.62.1,8.38.29s5.66.49,8.68.88l-1.53,13.18q-5.12-.47-9-.65t-6.91-.17q-9.71,0-14.09,1.35t-4.38,4.35a3.38,3.38,0,0,0,1.29,2.94,12.18,12.18,0,0,0,4,1.65l15.06,4.06q8.76,2.23,13,6.29t4.21,11.06q0,10-7.68,14.74T237.19,89.42Z" />
            <path class="cls-1"
                d="M298.14,44.53a9.88,9.88,0,0,1-9.88-9.88,9.89,9.89,0,1,1,16.88,7A9.47,9.47,0,0,1,298.14,44.53Zm0,44.89a9.9,9.9,0,0,1-9.88-9.89,9.83,9.83,0,0,1,9.88-9.94,9.52,9.52,0,0,1,7,2.88,10,10,0,0,1,0,14A9.45,9.45,0,0,1,298.14,89.42Z" />
            <path class="cls-1"
                d="M106.36,24.71q-7.19,0-11.18,3.17t-5,9.3h-1l-1-11.3H74.83V115.3H89.36V76.94h1.23a13.46,13.46,0,0,0,4.94,9.3c2.75,2.12,6.37,3.18,10.89,3.18q11.88,0,18.26-8.24t6.38-23.82q0-15.82-6.38-24.24T106.36,24.71Zm6.53,46.71q-3.48,4.76-10.24,4.76-7,0-10.15-4.47T89.36,57.94v-1.7q0-9.3,3.35-13.8t9.94-4.5a11.72,11.72,0,0,1,10.18,5q3.53,5,3.53,14.42T112.89,71.42Z" />
            <path class="cls-1"
                d="M177,24.71q-7.19,0-11.18,3.17t-5,9.3h-1l-1-11.3H145.42V115.3H160V76.94h1.23a13.46,13.46,0,0,0,4.94,9.3q4.13,3.18,10.89,3.18,11.88,0,18.26-8.24t6.38-23.82q0-15.82-6.38-24.24T177,24.71Zm6.53,46.71q-3.48,4.76-10.24,4.76-7,0-10.15-4.47T160,57.94v-1.7q0-9.3,3.35-13.8t9.94-4.5a11.7,11.7,0,0,1,10.18,5q3.53,5,3.53,14.42T183.48,71.42Z" />
            <path class="cls-1"
                d="M368.16,0V37.18h-1.41q-.94-6.12-4.83-9.3t-10.76-3.17q-11.94,0-18.33,8.41t-6.38,24.24q0,15.58,6.38,23.82t18.27,8.24q6.76,0,10.88-3.18t4.94-9.3h1.3L370,88.83l12.65-.59V0ZM365,71.71q-3.12,4.47-10.18,4.47-6.76,0-10.23-4.76t-3.47-14.06q0-9.42,3.53-14.42a11.69,11.69,0,0,1,10.17-5q6.58,0,9.94,4.5t3.36,13.8v1.7Q368.16,67.24,365,71.71Z" />
            <path class="cls-1"
                d="M427.28,89.42q-13.23,0-20.56-8.47t-7.33-23.89q0-15.47,7.33-23.91t20.56-8.44q13.29,0,20.59,8.44t7.29,23.91q0,15.42-7.29,23.89T427.28,89.42Zm0-13.53A10.91,10.91,0,0,0,436.87,71q3.35-4.91,3.35-13.91t-3.38-13.94a11.8,11.8,0,0,0-19.12,0q-3.39,4.89-3.38,13.94T417.72,71A10.92,10.92,0,0,0,427.28,75.89Z" />
        </g>
    </g>
</svg>